<svg width="101" height="25" viewBox="0 0 101 25" fill="none" xmlns="http://www.w3.org/2000/svg">
<path d="M14.8724 0C20.0555 6.27782e-05 23.3257 5.59715 20.7963 10.1387L15.2328 20.125C15.013 20.5191 14.4461 20.513 14.2348 20.1143L8.88124 10.0137C6.47595 5.47547 9.7518 0 14.8724 0ZM14.9008 3.69727C13.2049 3.69738 11.8297 5.07169 11.8295 6.76758C11.8295 8.46362 13.2048 9.83875 14.9008 9.83887C16.5969 9.83887 17.9721 8.46369 17.9721 6.76758C17.9719 5.07162 16.5968 3.69727 14.9008 3.69727Z" fill="#FF7700"/>
<circle cx="14.8438" cy="23.431" r="0.56872" fill="#FF7700"/>
<path d="M1.59258 24.0002V6.48363C1.59258 4.44201 3.24764 2.78695 5.28926 2.78695H6.48357" stroke="#0A0D12" stroke-width="0.909952" stroke-linecap="round"/>
<path d="M0.454976 11.0901H3.29858C4.24087 11.0901 5.00474 10.3262 5.00474 9.38396V7.39344" stroke="#0A0D12" stroke-width="0.909952" stroke-linecap="round"/>
<path d="M7.16572 16.9481L7.16572 14.6732C7.16572 13.7309 6.40184 12.9671 5.45956 12.9671L4.03776 12.9671" stroke="#0A0D12" stroke-width="0.909952" stroke-linecap="round"/>
<path d="M11.4313 24.0003L11.4313 19.7349C11.4313 18.7926 10.6675 18.0287 9.72518 18.0287L8.30338 18.0287" stroke="#0A0D12" stroke-width="0.909952" stroke-linecap="round"/>
<circle cx="5.00492" cy="6.19929" r="1.13744" stroke="#0A0D12" stroke-width="0.909952" stroke-linecap="round"/>
<circle cx="8.30316" cy="16.8912" r="1.13744" stroke="#0A0D12" stroke-width="0.909952" stroke-linecap="round"/>
<circle cx="8.27503" cy="21.5547" r="1.13744" stroke="#0A0D12" stroke-width="0.909952" stroke-linecap="round"/>
<path d="M7.33656 22.1801L5.75111 20.6219C5.43204 20.3084 5.00257 20.1327 4.55521 20.1327H4.03798" stroke="#0A0D12" stroke-width="0.909952" stroke-linecap="round"/>
<ellipse cx="4.54954" cy="16.2088" rx="0.966825" ry="0.966825" fill="#0A0D12"/>
<circle cx="6.7111" cy="10.5217" r="0.56872" fill="#0A0D12"/>
<circle cx="4.72038" cy="22.9196" r="0.56872" fill="#0A0D12"/>
<path d="M28.0953 24.0002V6.48363C28.0953 4.44201 26.4403 2.78695 24.3987 2.78695H23.2043" stroke="#0A0D12" stroke-width="0.909952" stroke-linecap="round"/>
<path d="M29.2326 11.0901H26.389C25.4468 11.0901 24.6829 10.3262 24.6829 9.38396V7.39344" stroke="#0A0D12" stroke-width="0.909952" stroke-linecap="round"/>
<path d="M22.5219 16.9481L22.5219 14.6732C22.5219 13.7309 23.2858 12.9671 24.2281 12.9671L25.6499 12.9671" stroke="#0A0D12" stroke-width="0.909952" stroke-linecap="round"/>
<path d="M18.2563 24.0003L18.2563 19.7349C18.2563 18.7926 19.0202 18.0287 19.9624 18.0287L21.3842 18.0287" stroke="#0A0D12" stroke-width="0.909952" stroke-linecap="round"/>
<circle cx="1.13744" cy="1.13744" r="1.13744" transform="matrix(-1 0 0 1 25.8204 5.06185)" stroke="#0A0D12" stroke-width="0.909952" stroke-linecap="round"/>
<circle cx="1.13744" cy="1.13744" r="1.13744" transform="matrix(-1 0 0 1 22.5219 15.7537)" stroke="#0A0D12" stroke-width="0.909952" stroke-linecap="round"/>
<circle cx="1.13744" cy="1.13744" r="1.13744" transform="matrix(-1 0 0 1 22.5503 20.4173)" stroke="#0A0D12" stroke-width="0.909952" stroke-linecap="round"/>
<path d="M22.3511 22.1801L23.9365 20.6219C24.2556 20.3084 24.6851 20.1327 25.1324 20.1327H25.6496" stroke="#0A0D12" stroke-width="0.909952" stroke-linecap="round"/>
<ellipse cx="0.966825" cy="0.966825" rx="0.966825" ry="0.966825" transform="matrix(-1 0 0 1 26.1049 15.242)" fill="#0A0D12"/>
<circle cx="0.56872" cy="0.56872" r="0.56872" transform="matrix(-1 0 0 1 23.5455 9.95296)" fill="#0A0D12"/>
<circle cx="0.56872" cy="0.56872" r="0.56872" transform="matrix(-1 0 0 1 25.5363 22.3509)" fill="#0A0D12"/>
<path d="M50.4695 20.7114C50.4186 20.7114 50.3753 20.6961 50.3397 20.6656C50.3091 20.6299 50.2939 20.5867 50.2939 20.5358V15.5491C50.2939 15.4931 50.3091 15.4498 50.3397 15.4193C50.3753 15.3836 50.4186 15.3658 50.4695 15.3658H50.8513C50.9124 15.3658 50.9582 15.3811 50.9888 15.4116C51.0193 15.4422 51.0372 15.4676 51.0422 15.488L52.6612 18.5732L54.2878 15.488C54.298 15.4676 54.3158 15.4422 54.3412 15.4116C54.3718 15.3811 54.4176 15.3658 54.4787 15.3658H54.8529C54.9089 15.3658 54.9522 15.3836 54.9827 15.4193C55.0184 15.4498 55.0362 15.4931 55.0362 15.5491V20.5358C55.0362 20.5867 55.0184 20.6299 54.9827 20.6656C54.9522 20.6961 54.9089 20.7114 54.8529 20.7114H54.4787C54.4278 20.7114 54.3845 20.6961 54.3489 20.6656C54.3183 20.6299 54.3031 20.5867 54.3031 20.5358V16.7786L53.0278 19.2681C53.0074 19.319 52.9768 19.3597 52.9361 19.3903C52.8954 19.4157 52.8445 19.4285 52.7834 19.4285H52.5466C52.4805 19.4285 52.427 19.4157 52.3863 19.3903C52.3506 19.3597 52.3201 19.319 52.2946 19.2681L51.0193 16.7786V20.5358C51.0193 20.5867 51.0015 20.6299 50.9659 20.6656C50.9353 20.6961 50.8946 20.7114 50.8437 20.7114H50.4695Z" fill="#0A0D12"/>
<path d="M56.9143 20.7114C56.8736 20.7114 56.838 20.6961 56.8074 20.6656C56.7769 20.635 56.7616 20.5994 56.7616 20.5587C56.7616 20.5332 56.7642 20.5052 56.7693 20.4747L58.6631 15.5338C58.6835 15.4829 58.7115 15.4422 58.7471 15.4116C58.7828 15.3811 58.8362 15.3658 58.9075 15.3658H59.4268C59.493 15.3658 59.5439 15.3811 59.5795 15.4116C59.6202 15.4422 59.6508 15.4829 59.6712 15.5338L61.5574 20.4747C61.5676 20.5052 61.5727 20.5332 61.5727 20.5587C61.5727 20.5994 61.5574 20.635 61.5268 20.6656C61.4963 20.6961 61.4607 20.7114 61.4199 20.7114H61.0305C60.9694 20.7114 60.9235 20.6961 60.893 20.6656C60.8675 20.635 60.8497 20.607 60.8395 20.5816L60.4195 19.4972H57.9147L57.4947 20.5816C57.4896 20.607 57.4718 20.635 57.4413 20.6656C57.4107 20.6961 57.3649 20.7114 57.3038 20.7114H56.9143ZM58.1362 18.8404H60.1981L59.1671 16.1295L58.1362 18.8404Z" fill="#0A0D12"/>
<path d="M64.0828 20.7114C64.0319 20.7114 63.9886 20.6961 63.953 20.6656C63.9225 20.6299 63.9072 20.5867 63.9072 20.5358V16.0454H62.441C62.39 16.0454 62.3468 16.0302 62.3111 15.9996C62.2806 15.964 62.2653 15.9207 62.2653 15.8698V15.5491C62.2653 15.4931 62.2806 15.4498 62.3111 15.4193C62.3468 15.3836 62.39 15.3658 62.441 15.3658H66.1218C66.1778 15.3658 66.2211 15.3836 66.2516 15.4193C66.2872 15.4498 66.3051 15.4931 66.3051 15.5491V15.8698C66.3051 15.9207 66.2872 15.964 66.2516 15.9996C66.2211 16.0302 66.1778 16.0454 66.1218 16.0454H64.6632V20.5358C64.6632 20.5867 64.6454 20.6299 64.6097 20.6656C64.5792 20.6961 64.5359 20.7114 64.4799 20.7114H64.0828Z" fill="#0A0D12"/>
<path d="M69.4216 20.7114C69.3707 20.7114 69.3274 20.6961 69.2917 20.6656C69.2612 20.6299 69.2459 20.5867 69.2459 20.5358V16.0454H67.7797C67.7288 16.0454 67.6855 16.0302 67.6499 15.9996C67.6193 15.964 67.6041 15.9207 67.6041 15.8698V15.5491C67.6041 15.4931 67.6193 15.4498 67.6499 15.4193C67.6855 15.3836 67.7288 15.3658 67.7797 15.3658H71.4605C71.5165 15.3658 71.5598 15.3836 71.5903 15.4193C71.626 15.4498 71.6438 15.4931 71.6438 15.5491V15.8698C71.6438 15.9207 71.626 15.964 71.5903 15.9996C71.5598 16.0302 71.5165 16.0454 71.4605 16.0454H70.0019V20.5358C70.0019 20.5867 69.9841 20.6299 69.9485 20.6656C69.9179 20.6961 69.8747 20.7114 69.8187 20.7114H69.4216Z" fill="#0A0D12"/>
<path d="M73.5919 20.7114C73.5359 20.7114 73.4926 20.6961 73.4621 20.6656C73.4315 20.6299 73.4163 20.5867 73.4163 20.5358V15.5491C73.4163 15.4931 73.4315 15.4498 73.4621 15.4193C73.4926 15.3836 73.5359 15.3658 73.5919 15.3658H76.7458C76.8018 15.3658 76.8451 15.3836 76.8756 15.4193C76.9062 15.4498 76.9214 15.4931 76.9214 15.5491V15.8393C76.9214 15.8953 76.9062 15.9385 76.8756 15.9691C76.8451 15.9996 76.8018 16.0149 76.7458 16.0149H74.1494V17.6873H76.5778C76.6338 17.6873 76.6771 17.7051 76.7076 17.7408C76.7382 17.7713 76.7534 17.8146 76.7534 17.8706V18.1531C76.7534 18.2041 76.7382 18.2473 76.7076 18.283C76.6771 18.3135 76.6338 18.3288 76.5778 18.3288H74.1494V20.0623H76.8069C76.8629 20.0623 76.9062 20.0776 76.9367 20.1081C76.9673 20.1387 76.9825 20.1819 76.9825 20.2379V20.5358C76.9825 20.5867 76.9673 20.6299 76.9367 20.6656C76.9062 20.6961 76.8629 20.7114 76.8069 20.7114H73.5919Z" fill="#0A0D12"/>
<path d="M79.1395 20.7114C79.0835 20.7114 79.0402 20.6961 79.0096 20.6656C78.9791 20.6299 78.9638 20.5867 78.9638 20.5358V15.5491C78.9638 15.4931 78.9791 15.4498 79.0096 15.4193C79.0402 15.3836 79.0835 15.3658 79.1395 15.3658H81.0028C81.5781 15.3658 82.0337 15.5007 82.3697 15.7705C82.7057 16.0404 82.8737 16.44 82.8737 16.9695C82.8737 17.3615 82.7745 17.6822 82.5759 17.9317C82.3825 18.1761 82.1177 18.3466 81.7817 18.4433L82.9577 20.4747C82.973 20.5052 82.9807 20.5332 82.9807 20.5587C82.9807 20.5994 82.9628 20.635 82.9272 20.6656C82.8966 20.6961 82.861 20.7114 82.8203 20.7114H82.4537C82.3672 20.7114 82.3035 20.6885 82.2628 20.6427C82.2221 20.5968 82.1864 20.551 82.1559 20.5052L81.0486 18.5655H79.7122V20.5358C79.7122 20.5867 79.6944 20.6299 79.6587 20.6656C79.6282 20.6961 79.5849 20.7114 79.5289 20.7114H79.1395ZM79.7122 17.9164H80.9722C81.3541 17.9164 81.6392 17.8375 81.8275 17.6797C82.0159 17.5168 82.1101 17.2775 82.1101 16.9618C82.1101 16.6513 82.0159 16.4146 81.8275 16.2516C81.6443 16.0887 81.3592 16.0073 80.9722 16.0073H79.7122V17.9164Z" fill="#0A0D12"/>
<path d="M86.6025 20.7878C86.1596 20.7878 85.7879 20.7216 85.4875 20.5892C85.1872 20.4518 84.9555 20.2761 84.7926 20.0623C84.6348 19.8434 84.5508 19.6117 84.5406 19.3674C84.5406 19.3266 84.5559 19.291 84.5864 19.2604C84.6221 19.2248 84.6628 19.207 84.7086 19.207H85.0981C85.1592 19.207 85.205 19.2223 85.2355 19.2528C85.2661 19.2834 85.2864 19.319 85.2966 19.3597C85.3221 19.4819 85.3832 19.6041 85.4799 19.7263C85.5817 19.8434 85.7217 19.9426 85.8999 20.0241C86.0832 20.1005 86.3174 20.1387 86.6025 20.1387C87.0403 20.1387 87.361 20.0623 87.5647 19.9096C87.7734 19.7517 87.8778 19.543 87.8778 19.2834C87.8778 19.1052 87.8218 18.9626 87.7098 18.8557C87.6029 18.7437 87.4374 18.6444 87.2134 18.5579C86.9894 18.4713 86.6992 18.3771 86.3428 18.2753C85.9712 18.1684 85.6632 18.0513 85.4188 17.924C85.1744 17.7968 84.9912 17.6389 84.869 17.4506C84.7519 17.2622 84.6933 17.0229 84.6933 16.7327C84.6933 16.4578 84.7672 16.2135 84.9148 15.9996C85.0624 15.7807 85.2737 15.6076 85.5486 15.4803C85.8286 15.3531 86.1672 15.2894 86.5643 15.2894C86.8799 15.2894 87.1549 15.3327 87.389 15.4193C87.6283 15.5007 87.8269 15.6127 87.9847 15.7553C88.1425 15.8927 88.2622 16.0429 88.3436 16.2058C88.4251 16.3636 88.4683 16.5189 88.4734 16.6716C88.4734 16.7073 88.4607 16.7429 88.4353 16.7786C88.4098 16.8091 88.3691 16.8244 88.3131 16.8244H87.9083C87.8727 16.8244 87.8345 16.8142 87.7938 16.7938C87.7581 16.7735 87.7301 16.7353 87.7098 16.6793C87.6792 16.4706 87.5621 16.2949 87.3585 16.1524C87.1549 16.0098 86.8901 15.9385 86.5643 15.9385C86.2334 15.9385 85.9635 16.0022 85.7548 16.1295C85.5512 16.2567 85.4494 16.4553 85.4494 16.7251C85.4494 16.8982 85.4977 17.0433 85.5944 17.1604C85.6912 17.2724 85.8439 17.3717 86.0526 17.4582C86.2614 17.5448 86.5337 17.6364 86.8698 17.7331C87.277 17.8451 87.6105 17.9648 87.8701 18.0921C88.1298 18.2142 88.3207 18.3695 88.4429 18.5579C88.5702 18.7412 88.6338 18.9779 88.6338 19.2681C88.6338 19.5888 88.5498 19.8637 88.3818 20.0928C88.2138 20.3168 87.9771 20.4899 87.6716 20.6121C87.3712 20.7292 87.0148 20.7878 86.6025 20.7878Z" fill="#0A0D12"/>
<path fill-rule="evenodd" clip-rule="evenodd" d="M48.2736 11.3947C47.5939 11.3947 47.0097 11.284 46.521 11.0625C46.0322 10.8334 45.6504 10.4859 45.3755 10.0201C45.1006 9.54663 44.9517 8.95862 44.9287 8.25605C44.9211 7.92768 44.9173 7.60313 44.9173 7.28239C44.9173 6.96165 44.9211 6.63328 44.9287 6.29727C44.9517 5.60234 45.1044 5.02196 45.3869 4.55613C45.6695 4.0903 46.0551 3.73902 46.5439 3.50229C47.0403 3.26555 47.6168 3.14719 48.2736 3.14719C48.9303 3.14719 49.5069 3.26555 50.0032 3.50229C50.4996 3.73902 50.8891 4.0903 51.1716 4.55613C51.4542 5.02196 51.6069 5.60234 51.6298 6.29727C51.6451 6.63328 51.6527 6.96165 51.6527 7.28239C51.6527 7.60313 51.6451 7.92768 51.6298 8.25605C51.6069 8.95862 51.458 9.54663 51.1831 10.0201C50.9082 10.4859 50.5225 10.8334 50.0262 11.0625C49.5374 11.284 48.9532 11.3947 48.2736 11.3947ZM48.2736 10.0774C48.7699 10.0774 49.1747 9.93228 49.4878 9.64209C49.8009 9.34426 49.9689 8.86316 49.9918 8.19878C50.0071 7.86277 50.0147 7.55349 50.0147 7.27093C50.0147 6.98075 50.0071 6.67146 49.9918 6.34309C49.9765 5.90017 49.8925 5.54125 49.7398 5.26633C49.5947 4.98378 49.3961 4.78141 49.1441 4.65923C48.8921 4.52941 48.6019 4.46449 48.2736 4.46449C47.9528 4.46449 47.6665 4.52941 47.4144 4.65923C47.1624 4.78141 46.9601 4.98378 46.8073 5.26633C46.6622 5.54125 46.5821 5.90017 46.5668 6.34309C46.5591 6.67146 46.5553 6.98075 46.5553 7.27093C46.5553 7.55349 46.5591 7.86277 46.5668 8.19878C46.5897 8.86316 46.7577 9.34426 47.0708 9.64209C47.3839 9.93228 47.7848 10.0774 48.2736 10.0774Z" fill="#0A0D12"/>
<path d="M38.3503 11.2801C38.274 11.2801 38.2091 11.2534 38.1556 11.2C38.1022 11.1465 38.0754 11.0816 38.0754 11.0052V3.53665C38.0754 3.46029 38.1022 3.39537 38.1556 3.34192C38.2091 3.28846 38.274 3.26173 38.3503 3.26173H39.4156C39.492 3.26173 39.5569 3.28846 39.6104 3.34192C39.6638 3.39537 39.6906 3.46029 39.6906 3.53665V9.91701H43.3218C43.4058 9.91701 43.4745 9.94374 43.5279 9.99719C43.5814 10.0506 43.6081 10.1194 43.6081 10.2034V11.0052C43.6081 11.0816 43.5814 11.1465 43.5279 11.2C43.4745 11.2534 43.4058 11.2801 43.3218 11.2801H38.3503Z" fill="#0A0D12"/>
<path d="M55.0126 11.0281C55.509 11.2725 56.1123 11.3947 56.8225 11.3947C57.3417 11.3947 57.8076 11.326 58.22 11.1885C58.6323 11.051 58.9836 10.8639 59.2738 10.6272C59.564 10.3828 59.7893 10.1003 59.9496 9.77955C60.11 9.45881 60.194 9.11135 60.2016 8.73716C60.2093 8.66843 60.1864 8.61115 60.1329 8.56533C60.0871 8.51951 60.0298 8.4966 59.9611 8.4966H58.8729C58.7889 8.4966 58.7201 8.5157 58.6667 8.55388C58.6132 8.59206 58.5751 8.66461 58.5521 8.77152C58.43 9.2679 58.22 9.61154 57.9221 9.80246C57.6243 9.98574 57.2539 10.0774 56.811 10.0774C56.2994 10.0774 55.8908 9.9361 55.5853 9.65355C55.2799 9.36336 55.1157 8.88989 55.0928 8.23314C55.0699 7.5764 55.0699 6.93493 55.0928 6.30873C55.1157 5.65198 55.2799 5.18233 55.5853 4.89978C55.8908 4.60959 56.2994 4.46449 56.811 4.46449C57.2539 4.46449 57.6243 4.55613 57.9221 4.73941C58.22 4.92269 58.43 5.26633 58.5521 5.77035C58.5751 5.86962 58.6132 5.94217 58.6667 5.98799C58.7201 6.02617 58.7889 6.04527 58.8729 6.04527H59.9611C60.0298 6.04527 60.0871 6.02236 60.1329 5.97654C60.1864 5.93072 60.2093 5.87344 60.2016 5.80471C60.194 5.43052 60.11 5.08306 59.9496 4.76232C59.7893 4.44159 59.564 4.16285 59.2738 3.92612C58.9836 3.68175 58.6323 3.49083 58.22 3.35337C57.8076 3.21592 57.3417 3.14719 56.8225 3.14719C56.1199 3.14719 55.5204 3.27319 55.024 3.5252C54.5353 3.76957 54.1573 4.12467 53.89 4.5905C53.6304 5.05633 53.4853 5.60998 53.4547 6.25145C53.4471 6.57983 53.4433 6.92347 53.4433 7.28239C53.4433 7.64131 53.4471 7.97732 53.4547 8.29042C53.4853 8.93953 53.6304 9.497 53.89 9.96283C54.1497 10.421 54.5239 10.7761 55.0126 11.0281Z" fill="#0A0D12"/>
<path d="M61.5508 11.2801C61.4897 11.2801 61.4324 11.2572 61.379 11.2114C61.3332 11.1656 61.3103 11.1083 61.3103 11.0396C61.3103 11.009 61.3179 10.9747 61.3332 10.9365L64.0938 3.54811C64.1167 3.47174 64.1587 3.40683 64.2198 3.35337C64.2885 3.29228 64.3802 3.26173 64.4947 3.26173H65.7433C65.8578 3.26173 65.9457 3.29228 66.0068 3.35337C66.0678 3.40683 66.1137 3.47174 66.1442 3.54811L68.9048 10.9365C68.9125 10.9747 68.9163 11.009 68.9163 11.0396C68.9163 11.1083 68.8934 11.1656 68.8476 11.2114C68.8017 11.2572 68.7483 11.2801 68.6872 11.2801H67.6906C67.5837 11.2801 67.5035 11.2572 67.4501 11.2114C67.4042 11.158 67.3737 11.1083 67.3584 11.0625L66.82 9.665L66.3918 8.36869L65.1133 4.80814L63.8622 8.36869L63.418 9.665L62.8796 11.0625C62.8643 11.1083 62.8299 11.158 62.7765 11.2114C62.7307 11.2572 62.6543 11.2801 62.5474 11.2801H61.5508Z" fill="#FF7700"/>
<path d="M70.6386 11.2C70.6921 11.2534 70.757 11.2801 70.8334 11.2801H71.9101C71.9941 11.2801 72.059 11.2534 72.1049 11.2C72.1583 11.1465 72.185 11.0816 72.185 11.0052V3.53665C72.185 3.46029 72.1583 3.39537 72.1049 3.34192C72.059 3.28846 71.9941 3.26173 71.9101 3.26173H70.8334C70.757 3.26173 70.6921 3.28846 70.6386 3.34192C70.5852 3.39537 70.5584 3.46029 70.5584 3.53665V11.0052C70.5584 11.0816 70.5852 11.1465 70.6386 11.2Z" fill="#FF7700"/>
<path d="M76.5932 11.2801C76.5168 11.2801 76.4519 11.2534 76.3985 11.2C76.345 11.1465 76.3183 11.0816 76.3183 11.0052V4.67068H74.1991C74.1228 4.67068 74.0578 4.64395 74.0044 4.5905C73.9509 4.53704 73.9242 4.47213 73.9242 4.39577V3.54811C73.9242 3.4641 73.9509 3.39537 74.0044 3.34192C74.0578 3.28846 74.1228 3.26173 74.1991 3.26173H80.0411C80.1251 3.26173 80.1938 3.28846 80.2473 3.34192C80.3007 3.39537 80.3275 3.4641 80.3275 3.54811V4.39577C80.3275 4.47213 80.3007 4.53704 80.2473 4.5905C80.1938 4.64395 80.1251 4.67068 80.0411 4.67068H77.9334V11.0052C77.9334 11.0816 77.9067 11.1465 77.8532 11.2C77.7998 11.2534 77.731 11.2801 77.647 11.2801H76.5932Z" fill="#0A0D12"/>
<path d="M82.1427 11.2C82.1962 11.2534 82.2611 11.2801 82.3374 11.2801H83.4142C83.4982 11.2801 83.5631 11.2534 83.6089 11.2C83.6624 11.1465 83.6891 11.0816 83.6891 11.0052V3.53665C83.6891 3.46029 83.6624 3.39537 83.6089 3.34192C83.5631 3.28846 83.4982 3.26173 83.4142 3.26173H82.3374C82.2611 3.26173 82.1962 3.28846 82.1427 3.34192C82.0892 3.39537 82.0625 3.46029 82.0625 3.53665V11.0052C82.0625 11.0816 82.0892 11.1465 82.1427 11.2Z" fill="#0A0D12"/>
<path fill-rule="evenodd" clip-rule="evenodd" d="M89.1397 11.3947C88.46 11.3947 87.8758 11.284 87.3871 11.0625C86.8983 10.8334 86.5165 10.4859 86.2416 10.0201C85.9667 9.54663 85.8177 8.95862 85.7948 8.25605C85.7872 7.92768 85.7834 7.60313 85.7834 7.28239C85.7834 6.96165 85.7872 6.63328 85.7948 6.29727C85.8177 5.60234 85.9705 5.02196 86.253 4.55613C86.5356 4.0903 86.9212 3.73902 87.41 3.50229C87.9063 3.26555 88.4829 3.14719 89.1397 3.14719C89.7964 3.14719 90.373 3.26555 90.8693 3.50229C91.3657 3.73902 91.7552 4.0903 92.0377 4.55613C92.3203 5.02196 92.473 5.60234 92.4959 6.29727C92.5112 6.63328 92.5188 6.96165 92.5188 7.28239C92.5188 7.60313 92.5112 7.92768 92.4959 8.25605C92.473 8.95862 92.3241 9.54663 92.0492 10.0201C91.7743 10.4859 91.3886 10.8334 90.8922 11.0625C90.4035 11.284 89.8193 11.3947 89.1397 11.3947ZM89.1397 10.0774C89.636 10.0774 90.0408 9.93228 90.3539 9.64209C90.667 9.34426 90.835 8.86316 90.8579 8.19878C90.8732 7.86277 90.8808 7.55349 90.8808 7.27093C90.8808 6.98075 90.8732 6.67146 90.8579 6.34309C90.8426 5.90017 90.7586 5.54125 90.6059 5.26633C90.4608 4.98378 90.2622 4.78141 90.0102 4.65923C89.7582 4.52941 89.468 4.46449 89.1397 4.46449C88.8189 4.46449 88.5325 4.52941 88.2805 4.65923C88.0285 4.78141 87.8262 4.98378 87.6734 5.26633C87.5283 5.54125 87.4482 5.90017 87.4329 6.34309C87.4252 6.67146 87.4214 6.98075 87.4214 7.27093C87.4214 7.55349 87.4252 7.86277 87.4329 8.19878C87.4558 8.86316 87.6238 9.34426 87.9369 9.64209C88.25 9.93228 88.6509 10.0774 89.1397 10.0774Z" fill="#0A0D12"/>
<path d="M94.6759 11.2C94.7294 11.2534 94.7943 11.2801 94.8707 11.2801H95.8329C95.9169 11.2801 95.9856 11.2534 96.0391 11.2C96.0925 11.1465 96.1192 11.0816 96.1192 11.0052V6.07963L99.4068 11.0969C99.4297 11.1121 99.4641 11.1465 99.5099 11.2C99.5557 11.2534 99.6321 11.2801 99.739 11.2801H100.632C100.709 11.2801 100.774 11.2534 100.827 11.2C100.881 11.1465 100.907 11.0778 100.907 10.9938V3.54811C100.907 3.4641 100.881 3.39537 100.827 3.34192C100.774 3.28846 100.705 3.26173 100.621 3.26173H99.6588C99.5748 3.26173 99.5061 3.28846 99.4526 3.34192C99.4068 3.39537 99.3839 3.4641 99.3839 3.54811V8.57679L96.0849 3.44501C96.0696 3.4221 96.0352 3.38774 95.9818 3.34192C95.936 3.28846 95.8596 3.26173 95.7527 3.26173H94.8707C94.7943 3.26173 94.7294 3.28846 94.6759 3.34192C94.6225 3.39537 94.5957 3.4641 94.5957 3.54811V11.0052C94.5957 11.0816 94.6225 11.1465 94.6759 11.2Z" fill="#0A0D12"/>
<path d="M66.0678 9.18771C66.0678 9.71491 65.6405 10.1423 65.1133 10.1423C64.5861 10.1423 64.1587 9.71491 64.1587 9.18771C64.1587 8.66052 64.5861 8.23314 65.1133 8.23314C65.6405 8.23314 66.0678 8.66052 66.0678 9.18771Z" fill="#FF7700"/>
<rect x="92.9633" y="18.4208" width="0.763657" height="4.0092" rx="0.190914" transform="rotate(-90 92.9633 18.4208)" fill="#0A0D12"/>
<rect x="41.9888" y="18.4208" width="0.763657" height="4.0092" rx="0.190914" transform="rotate(-90 41.9888 18.4208)" fill="#0A0D12"/>
</svg>
